<?xml version="1.0" encoding="UTF-8" standalone="no"?>
<!DOCTYPE svg PUBLIC "-//W3C//DTD SVG 1.1//EN" "http://www.w3.org/Graphics/SVG/1.1/DTD/svg11.dtd">
<svg width="100%" height="100%" viewBox="0 0 150 150" version="1.1" xmlns="http://www.w3.org/2000/svg" xmlns:xlink="http://www.w3.org/1999/xlink" xml:space="preserve" xmlns:serif="http://www.serif.com/" style="fill-rule:evenodd;clip-rule:evenodd;stroke-linejoin:round;stroke-miterlimit:2;">
    <g id="Artboard1" transform="matrix(0.477876,0,0,1.23367,11.559,-10.5551)">
        <rect x="-24.188" y="8.556" width="313.889" height="121.588" style="fill:none;"/>
        <g transform="matrix(6.46642,2.47704,-7.79181,2.33114,396.814,-211.408)">
            <path d="M31.155,65.897C30.994,65.154 31.519,64.283 31.991,63.773C32.463,63.264 33.267,62.693 33.987,62.84C35.773,63.205 41.297,66.471 42.708,65.962C44.119,65.452 42.357,61.156 42.451,59.783C42.501,59.045 42.794,58.201 43.271,57.723C43.749,57.246 44.628,56.919 45.315,56.919C46.001,56.919 46.908,57.246 47.391,57.723C47.873,58.201 48.169,59.045 48.211,59.783C48.297,61.288 46.139,63.043 47.905,66.754C48.661,68.344 55.876,64.369 57.866,64.063C58.576,63.954 59.384,64.428 59.845,64.916C60.306,65.404 60.869,66.29 60.634,66.992C60.363,67.799 59.365,69.326 58.22,69.759C56.493,70.414 50.92,69.995 50.271,70.918C49.622,71.84 52.945,73.891 54.326,75.295C55.695,76.686 58.123,78.127 58.559,79.341C58.968,80.478 57.756,81.782 56.945,82.584C56.134,83.386 54.778,84.151 53.692,84.155C52.606,84.159 50.439,83.812 50.429,82.608C50.407,80.036 48.554,73.446 45.604,74.361C43.785,74.926 40.88,82.524 39.043,83.623C37.556,84.513 35.473,81.746 34.582,80.959C34.022,80.464 33.681,79.646 33.697,78.899C33.715,78.033 33.825,76.434 34.691,75.759C36.142,74.627 42.688,73.333 42.404,72.108C42.121,70.882 37.388,67.494 32.989,68.408C31.974,68.618 31.321,66.67 31.155,65.897Z" style="fill-rule:nonzero;"/>
        </g>
    </g>
</svg>
